<svg xmlns="http://www.w3.org/2000/svg" viewBox="0 0 92.01 83.02"><defs><style>.cls-1{fill:#eee;}</style></defs><title>A3d</title><g id="Layer_2" data-name="Layer 2"><g id="Layer_3" data-name="Layer 3"><path class="cls-1" d="M92,79.3l-4.17-7.23-1.56,2.7L72.77,67V64.77H70.22V54.63L59.46,60.85V73.28l8.22-4.75v1.34h5.09V69.4l12.46,7.19L83.66,79.3ZM71.72,68.82h-3v-3h3v2.91l0,0h0Z"/><path class="cls-1" d="M43.47,22.33v4l-8.21,4.74L46,37.31l10.77-6.22-8.22-4.74v-4h-1.5V7.23H50.2L46,0,41.84,7.23H45v15.1Zm4.05,4.05h-3v-3h3Z"/><path class="cls-1" d="M48.57,50.23l8.22-4.75L46,39.27,35.26,45.48l8.21,4.75v2.52l-9.19-5.31V59.87L45,66.08V55.29h2V66.08l10.76-6.21V47.44l-9.19,5.31Zm-4,1h3v3h-3Z"/><path class="cls-1" d="M67.68,41.44h.48l-8.7,5V58.89l10.76-6.21V41.44h2.55v-5.1H67.68v1l-9.2-5.31L47.72,38.29,58.48,44.5l9.2-5.31Zm1-4h3v3h-3Z"/><path class="cls-1" d="M47,77.92H45V68L34.28,61.83V74.26l9.19,5.31V83h5.1V79.57l9.19-5.31V61.83L47,68Zm.52,4h-3V79h3Z"/><path class="cls-1" d="M21.82,64.77H19.27V67L5.74,74.78,4.17,72.07,0,79.3H8.35L6.79,76.59l12.48-7.21v.49h5.1V68.53l8.21,4.75V60.85L21.82,54.63Zm1.5,4h-3v-3h3Z"/><path class="cls-1" d="M24.37,39.19l9.19,5.31,10.77-6.21L33.56,32.07l-9.19,5.31V36.22h-5.1v5.1h2.55V52.68l10.76,6.21V46.46l-8.91-5.14h.7Zm-2.55,1.06v0h-1.5v-3h3v3H21.86Z"/></g></g></svg>
