<svg xmlns="http://www.w3.org/2000/svg" viewBox="0 0 98.9 55.14"><defs><style>.cls-1{fill:#eee;}</style></defs><title>Adev</title><g id="Layer_2" data-name="Layer 2"><g id="Layer_3" data-name="Layer 3"><rect class="cls-1" x="25.54" y="23.91" width="22.05" height="2.79" transform="translate(-0.82 49.4) rotate(-67.5)"/><polygon class="cls-1" points="44.25 34.46 53.39 25.31 44.25 16.16 42.27 18.14 49.45 25.31 42.27 32.48 44.25 34.46"/><polygon class="cls-1" points="19.77 25.36 28.87 34.46 30.85 32.48 23.67 25.31 30.85 18.14 28.87 16.16 19.73 25.31 19.77 25.36 19.77 25.36"/><path class="cls-1" d="M88.16,51.74a1.86,1.86,0,0,0,.74-1.49V1.88A1.89,1.89,0,0,0,87,0H11.88A1.89,1.89,0,0,0,10,1.88V50.25a1.86,1.86,0,0,0,.74,1.49L0,51.88v1.86c5,1.67,46.71,1.38,49.38,1.38h.13c2.68,0,44.35.29,49.39-1.38V51.88Zm-2.78-4.08H13.52V4.35H85.38Z"/><path class="cls-1" d="M63.11,43.53H75.67A2.52,2.52,0,0,0,78.18,41V10.7a2.52,2.52,0,0,0-2.51-2.51H63.11A2.52,2.52,0,0,0,60.6,10.7V41A2.52,2.52,0,0,0,63.11,43.53Zm-.75-30.9h14V39.09h-14Z"/></g></g></svg>
