<svg xmlns="http://www.w3.org/2000/svg" viewBox="0 0 86.18 96.81"><defs><style>.cls-1{fill:#eee;}</style></defs><title>Adrawing</title><g id="Layer_2" data-name="Layer 2"><g id="Layer_3" data-name="Layer 3"><circle class="cls-1" cx="17.01" cy="72.42" r="2.43"/><path class="cls-1" d="M42.42,51.37a2.83,2.83,0,0,1-1-.16l-2.68-.87a3.05,3.05,0,0,1-1.93-3.94L52.76,2a3.06,3.06,0,0,1,5.81,1.89L45.35,49.16a3.06,3.06,0,0,1-2.93,2.21ZM55.63,2a1,1,0,0,0-1,.71L38.74,47.08a1,1,0,0,0,0,.82,1.06,1.06,0,0,0,.62.54l2.68.87a1,1,0,0,0,.82-.07,1.06,1.06,0,0,0,.53-.64L56.65,3.36A1,1,0,0,0,56,2.06,1,1,0,0,0,55.63,2Z"/><path class="cls-1" d="M62.22,21.78,50.58,27.71l-2.64,9,11.81-6a1.32,1.32,0,0,1,1.77.58L76.43,60.57a1.32,1.32,0,0,1-.57,1.77L31.93,84.72l-16.1-31.6L39.91,40.85l3.38-9.42L1.62,52.65a3,3,0,0,0-1.3,4L20,95.19a3,3,0,0,0,4,1.3l60.6-30.88a3,3,0,0,0,1.3-4L66.22,23.08A3,3,0,0,0,62.22,21.78ZM9,61.17a.21.21,0,0,1,.09-.28l3.19-1.62a.21.21,0,0,1,.28.09l.86,1.7a.2.2,0,0,1-.09.28L10.18,63a.21.21,0,0,1-.28-.09Zm1.83,3.59a.2.2,0,0,1,.09-.28l3.18-1.62a.21.21,0,0,1,.29.09l.86,1.69a.22.22,0,0,1-.09.29L12,66.55a.21.21,0,0,1-.28-.09ZM25,83.61a.27.27,0,0,1-.12.37l-3.06,1.56a.28.28,0,0,1-.38-.12l-.8-1.57a.29.29,0,0,1,.12-.38l3.07-1.56a.28.28,0,0,1,.37.13ZM23.12,80a.28.28,0,0,1-.12.38L19.94,82a.28.28,0,0,1-.38-.12l-.8-1.57a.29.29,0,0,1,.13-.38L22,78.33a.27.27,0,0,1,.37.12Zm-1.36-9.28a5,5,0,1,1-7.6-2.47A5,5,0,0,1,21.76,70.74Z"/><rect class="cls-1" x="36.57" y="51.15" width="6.44" height="1.36" rx="0.59" ry="0.59" transform="translate(61.62 113.41) rotate(-162)"/><path class="cls-1" d="M34.48,59.7a4.26,4.26,0,0,1,.26,3.24,4.22,4.22,0,0,1-1.68,2.21,9.44,9.44,0,0,0,9-6.52h0a4.26,4.26,0,1,0-7.57,1.07Z"/></g></g></svg>
