<svg xmlns="http://www.w3.org/2000/svg" viewBox="0 0 60.62 97.42"><defs><style>.cls-1{fill:#eee;}</style></defs><title>Aenergy</title><g id="Layer_2" data-name="Layer 2"><g id="Layer_3" data-name="Layer 3"><path class="cls-1" d="M51,8.14A30,30,0,0,0,28.12.08,30.32,30.32,0,0,0,7.87,50.69a33.09,33.09,0,0,1,8.76,22.25A4.32,4.32,0,0,0,21,77.25H39.57A4.42,4.42,0,0,0,44,72.83a32.49,32.49,0,0,1,8.65-22A30.31,30.31,0,0,0,51,8.14Zm.19,41.32A34.52,34.52,0,0,0,42,72.83a2.42,2.42,0,0,1-2.42,2.42H21a2.32,2.32,0,0,1-2.32-2.31,35.09,35.09,0,0,0-9.28-23.6A28.31,28.31,0,0,1,28.26,2.07C29,2,29.65,2,30.33,2A28,28,0,0,1,49.61,9.6a28.31,28.31,0,0,1,1.55,39.86Z"/><rect class="cls-1" x="17.94" y="79.56" width="25.05" height="4.72" rx="2.23" ry="2.23"/><rect class="cls-1" x="17.94" y="86.13" width="25.05" height="4.72" rx="2.23" ry="2.23"/><rect class="cls-1" x="24.15" y="92.7" width="12.63" height="4.72" rx="2.23" ry="2.23"/><path class="cls-1" d="M41.44,26.46H40.35l-.91-3.16a.78.78,0,0,0-.75-.56H21.93a.76.76,0,0,0-.74.56l-.92,3.16H19.18a.9.9,0,0,0-.9.9v.1a.9.9,0,0,0,.9.9h.37l.52,6.88h-.56a.18.18,0,0,0-.19.2l1.42,16a.19.19,0,0,0,.19.16h.38L22.1,62H38.52l.79-10.38h.38a.19.19,0,0,0,.19-.16l1.43-16a.19.19,0,0,0-.2-.2h-.56l.52-6.88h.37a.9.9,0,0,0,.9-.9v-.1A.9.9,0,0,0,41.44,26.46ZM37.59,61H23l-.71-9.38h16ZM26.45,41a2.72,2.72,0,0,1,3.86,0,2.73,2.73,0,1,1,3.86,3.86L30.31,48.7l-3.86-3.86A2.72,2.72,0,0,1,26.45,41Zm13.1-5.74H21.07l-.52-6.88H40.07Z"/></g></g></svg>
