<svg xmlns="http://www.w3.org/2000/svg" viewBox="0 0 73.38 77.29"><defs><style>.cls-1{fill:#eee;}</style></defs><title>Apen</title><g id="Layer_2" data-name="Layer 2"><g id="Layer_3" data-name="Layer 3"><polygon class="cls-1" points="25.68 66.02 24.85 70.25 48.53 70.25 47.7 66.02 25.68 66.02"/><polygon class="cls-1" points="24.62 73.06 23.71 77.29 49.67 77.29 48.76 73.06 24.62 73.06"/><path class="cls-1" d="M40.71,12.27H38.07V36.64a4.73,4.73,0,1,1-2.76,0V12.27H32.68c0,14.67-13.59,26.81-13.59,26.81l9,24.27h17.3l9-24.27S40.71,26.94,40.71,12.27Z"/><path class="cls-1" d="M70.64,33.29A34.19,34.19,0,0,0,47.17,4.22H53a2.63,2.63,0,1,0,0-1.65H40.09V0h-6.8V2.57H20.36a2.64,2.64,0,1,0,0,1.65h5.85A34.22,34.22,0,0,0,2.74,33.29H0v6.8H6.8v-6.8H4.4A32.54,32.54,0,0,1,33.29,4.4V6.8h6.8V4.4A32.54,32.54,0,0,1,69,33.29H66.59v6.8h6.79v-6.8Z"/></g></g></svg>
