<svg xmlns="http://www.w3.org/2000/svg" viewBox="0 0 42.83 26.9"><title>behance</title><g id="Layer_2" data-name="Layer 2"><g id="Layer_3" data-name="Layer 3"><path d="M12.46,0a12.86,12.86,0,0,1,3.42.38,7.37,7.37,0,0,1,2.66,1,4.38,4.38,0,0,1,1.72,2,7.56,7.56,0,0,1,.58,3,5.3,5.3,0,0,1-1,3.33A6.77,6.77,0,0,1,17.22,12a6.25,6.25,0,0,1,3.6,2.46,7.82,7.82,0,0,1,.47,7.61,6.15,6.15,0,0,1-2.09,2.37,9.55,9.55,0,0,1-3,1.33,14.37,14.37,0,0,1-3.42.47L0,26.24V0Zm-.77,10.65a4.17,4.17,0,0,0,2.56-.77,2.78,2.78,0,0,0,1-2.37A3.58,3.58,0,0,0,14.92,6a2.63,2.63,0,0,0-.85-1,5.07,5.07,0,0,0-1.24-.47,8,8,0,0,0-1.51-.09H5.81v6.18ZM12,21.87a8.09,8.09,0,0,0,1.62-.19,3.13,3.13,0,0,0,1.32-.57,3.75,3.75,0,0,0,1-1.05,4.75,4.75,0,0,0,.37-1.72,3.66,3.66,0,0,0-1.14-2.95,5,5,0,0,0-3-.85H5.81v7.32H12Z"/><path d="M30.33,21.78a4.68,4.68,0,0,0,3.42,1.14,5.16,5.16,0,0,0,2.76-.77,3.66,3.66,0,0,0,1.42-1.71h4.66a9.35,9.35,0,0,1-3.42,4.94,10.07,10.07,0,0,1-5.51,1.52,11.07,11.07,0,0,1-4.09-.76A7.5,7.5,0,0,1,26.52,24a7.68,7.68,0,0,1-1.9-3.13A11.33,11.33,0,0,1,24,16.82a11,11,0,0,1,.67-4,10.31,10.31,0,0,1,2-3.23,9.54,9.54,0,0,1,3-2.09,10.79,10.79,0,0,1,4-.77,8.76,8.76,0,0,1,4.27,1,7.72,7.72,0,0,1,3,2.56,11.48,11.48,0,0,1,1.72,3.61A20.24,20.24,0,0,1,42.79,18H29A5.52,5.52,0,0,0,30.33,21.78Zm6-10a4.08,4.08,0,0,0-2.94-1,4.65,4.65,0,0,0-2.1.47,4.71,4.71,0,0,0-1.32,1,2.49,2.49,0,0,0-.67,1.33,6.06,6.06,0,0,0-.19,1.23h8.55A5.09,5.09,0,0,0,36.32,11.79ZM28,1.81H38.6V4.37H28Z"/></g></g></svg>
