<svg xmlns="http://www.w3.org/2000/svg" viewBox="0 0 171.95 35.8"><defs><style>.cls-1{fill:#fff;}</style></defs><title>Asset 2</title><g id="Layer_2" data-name="Layer 2"><g id="Layer_6" data-name="Layer 6"><path class="cls-1" d="M.2,0H26.72a.18.18,0,0,1,.17.2V8.81c0,.12-.06.18-.17.18H9V26.82H17.9V22.4H13.71a.18.18,0,0,1-.2-.2V13.61c0-.14.08-.2.2-.2h13a.18.18,0,0,1,.17.2v22c0,.14-.06.2-.17.2H.2a.18.18,0,0,1-.2-.2V.2C0,.07.08,0,.2,0Z"/><path class="cls-1" d="M30.26,0H56.65c.14,0,.2.08.2.2V35.6c0,.14-.06.2-.2.2H48.06a.18.18,0,0,1-.2-.2V26.89H39.05V35.6a.18.18,0,0,1-.2.2H30.26a.18.18,0,0,1-.2-.2V.2C30.08.07,30.14,0,30.26,0Zm8.79,9V17.9h8.81V9Z"/><path class="cls-1" d="M60.22,0H86.74c.13,0,.2.08.2.17V35.6a.18.18,0,0,1-.2.2H78.12a.18.18,0,0,1-.2-.2V9H69V35.6a.18.18,0,0,1-.2.2H60.22a.18.18,0,0,1-.2-.2V.17A.19.19,0,0,1,60.22,0Z"/><path class="cls-1" d="M102.87,0h8.61a.18.18,0,0,1,.18.2V26.82h17.72c.12,0,.18.07.18.17V35.6c0,.14-.06.2-.18.2H102.87c-.14,0-.2-.06-.2-.2V.2A.19.19,0,0,1,102.87,0Z"/><path class="cls-1" d="M132.78,0h8.61a.18.18,0,0,1,.18.2V35.6c0,.14-.06.2-.18.2h-8.61a.18.18,0,0,1-.2-.2V.2C132.6.07,132.66,0,132.78,0Z"/><path class="cls-1" d="M145.24,0h26.51c.14,0,.2.08.2.17V35.6c0,.14-.06.2-.2.2h-8.61a.18.18,0,0,1-.2-.2V9h-8.89V35.6a.18.18,0,0,1-.2.2h-8.61c-.14,0-.2-.06-.2-.2V.17A.18.18,0,0,1,145.24,0Z"/></g></g></svg>
