<svg xmlns="http://www.w3.org/2000/svg" viewBox="0 0 3.54 7.41"><defs><style>.cls-1{fill:#fdb508;}</style></defs><title>Asset 1</title><g id="Layer_2" data-name="Layer 2"><g id="Layer_3" data-name="Layer 3"><path class="cls-1" d="M2.66,2.26a.14.14,0,0,0-.14-.09H2.45a.78.78,0,0,0,.12-.4.78.78,0,0,0-.36-.65A.68.68,0,0,0,2.42.65.65.65,0,0,0,1.77,0a.64.64,0,0,0-.64.65.67.67,0,0,0,.2.47A.78.78,0,0,0,1,1.77a.78.78,0,0,0,.12.4H1a.12.12,0,0,0-.13.09L0,7.12c0,.16.79.29,1.77.29s1.77-.13,1.77-.29Z"/></g></g></svg>
