<svg xmlns="http://www.w3.org/2000/svg" viewBox="0 0 33.08 33.08"><title>insta</title><g id="Layer_2" data-name="Layer 2"><g id="Layer_3" data-name="Layer 3"><path d="M8,0A8,8,0,0,0,0,8V25a8.05,8.05,0,0,0,8,8H25a8.05,8.05,0,0,0,8-8V8a8.05,8.05,0,0,0-8-8ZM8,2.84H25A5.15,5.15,0,0,1,30.24,8V25a5.15,5.15,0,0,1-5.2,5.2H8A5.15,5.15,0,0,1,2.84,25V8A5.15,5.15,0,0,1,8,2.84ZM26,5.67a1.89,1.89,0,1,0,1.89,1.89A1.89,1.89,0,0,0,26,5.67ZM16.54,8.51a8,8,0,1,0,8,8A8,8,0,0,0,16.54,8.51Zm0,2.83a5.2,5.2,0,1,1-5.2,5.2A5.18,5.18,0,0,1,16.54,11.34Z"/></g></g></svg>
